<svg width="70" height="135" viewBox="0 0 70 135" fill="none" xmlns="http://www.w3.org/2000/svg">
<g clip-path="url(#clip0_5_2)">
<path d="M35.0001 0.388672C15.5331 0.388672 0 15.9841 0 35.4275C0 49.9834 8.59433 62.8506 22.0733 68.1199V121.163C22.0733 122.615 22.563 123.889 23.6917 125.026L32.892 134.103C34.0122 135.174 36.0697 135.427 37.3737 134.077L54.4274 116.97C55.7921 115.566 55.7424 113.611 54.4123 112.275L44.2872 102.169L58.4086 88.0253C59.6469 86.7324 59.6619 84.7425 58.2625 83.3728L44.4305 69.3805C60.8444 62.5844 70 50.2118 70 35.4275C70 16.034 54.3828 0.388672 35.0001 0.388672ZM35.0001 32.1286C30.0463 32.1286 26.0964 28.1149 26.0964 23.1513C26.0964 18.1995 30.0117 14.2433 35.0001 14.2433C39.9193 14.2433 43.9459 18.2147 43.9459 23.1513C43.9459 28.1149 39.9193 32.1286 35.0001 32.1286Z" fill="black" fill-opacity="0.85"/>
</g>
<defs>
<clipPath id="clip0_5_2">
<rect width="70" height="135" fill="white"/>
</clipPath>
</defs>
</svg>
