<svg width="333" height="333" viewBox="0 0 333 333" fill="none" xmlns="http://www.w3.org/2000/svg">
<g clip-path="url(#clip0_11_19)">
<path d="M333 166.563C333 258.318 258.268 333 166.449 333C74.7337 333 0 258.318 0 166.563C0 74.9341 74.7337 0.229492 166.449 0.229492C258.268 0.229492 333 74.9341 333 166.563ZM120.873 127.835V147.683C110.93 148.461 105.959 154.354 105.959 166.341V232.634C105.959 245.624 111.753 251.518 123.698 251.518H209.223C221.145 251.518 226.937 245.624 226.937 232.634V166.341C226.937 154.354 221.944 148.46 212.025 147.706V127.835C212.025 97.4035 193.597 77.0736 166.449 77.0736C139.3 77.0736 120.873 97.4035 120.873 127.835ZM194.18 126.241V147.398H138.821V126.241C138.821 107.195 149.833 94.4818 166.426 94.4818C183.018 94.4818 194.18 107.172 194.18 126.241Z" fill="black" fill-opacity="0.85"/>
</g>
<defs>
<clipPath id="clip0_11_19">
<rect width="333" height="333" fill="white"/>
</clipPath>
</defs>
</svg>
