<svg width="739" height="569" viewBox="0 0 739 569" fill="none" xmlns="http://www.w3.org/2000/svg">
<g clip-path="url(#clip0_2_50)">
<path d="M608.905 134.693V294.618C606.535 294.313 604.105 294.248 601.657 294.248C598.948 294.248 596.255 294.328 593.624 294.662V223.495C593.624 190.962 575.649 174.192 544.414 174.192H195.279C162.901 174.192 145.985 190.962 145.985 223.495V435.677C145.985 468.159 162.901 485.117 195.279 485.117H475.457C477.709 490.402 480.291 495.513 483.284 500.359H195.067C152.944 500.359 130.755 478.121 130.755 436.072V134.693C130.755 92.5063 152.944 70.4059 195.067 70.4059H544.54C586.716 70.4059 608.905 93.1043 608.905 134.693Z" fill="black" fill-opacity="0.85"/>
<path d="M425.1 407.446C425.1 411.366 421.878 414.591 417.718 414.591H228.755C224.541 414.591 221.318 411.366 221.318 407.446C221.318 403.417 224.541 400.274 228.755 400.274H417.718C421.878 400.274 425.1 403.417 425.1 407.446ZM516.432 324.544C511.673 328.255 507.216 332.331 503.11 336.745H228.755C224.541 336.745 221.318 333.519 221.318 329.682C221.318 325.707 224.541 322.428 228.755 322.428H511.149C513.287 322.428 515.125 323.239 516.432 324.544ZM518.531 251.865C518.531 255.756 515.446 259.035 511.149 259.035H228.755C224.541 259.035 221.318 255.756 221.318 251.865C221.318 247.942 224.541 244.717 228.755 244.717H511.149C515.446 244.717 518.531 247.942 518.531 251.865Z" fill="black" fill-opacity="0.85"/>
<g clip-path="url(#clip1_2_50)">
<path d="M719 432.046C719 496.399 666.357 549 601.953 549C537.642 549 485 496.399 485 432.046C485 367.786 537.642 315.186 601.953 315.186C666.357 315.186 719 367.786 719 432.046ZM571.134 399.016V416.523C562.307 416.56 557.96 420.833 557.96 430.713V480.999C557.96 490.915 562.344 495.188 571.324 495.188H632.583C641.563 495.188 646.014 490.915 646.014 480.999V430.713C646.014 420.833 641.6 416.56 632.772 416.523V399.016C632.772 379.182 620.389 366.085 601.953 366.085C583.517 366.085 571.134 379.182 571.134 399.016ZM625.956 398.811V416.497H577.977V398.811C577.977 383.199 587.626 372.884 601.953 372.884C616.281 372.884 625.956 383.199 625.956 398.811Z" fill="black" fill-opacity="0.85"/>
</g>
</g>
<defs>
<clipPath id="clip0_2_50">
<rect width="738" height="568" fill="white" transform="translate(0.898438 0.894531)"/>
</clipPath>
<clipPath id="clip1_2_50">
<rect width="234" height="234" fill="white" transform="translate(485 315)"/>
</clipPath>
</defs>
</svg>
